<svg id="レイヤー_1" data-name="レイヤー 1" xmlns="http://www.w3.org/2000/svg" viewBox="0 0 240 600"><defs><style>.cls-1{fill:#080404;}.cls-2,.cls-3{fill:#ddd;}.cls-2{stroke:#ddd;stroke-miterlimit:10;}</style></defs><rect class="cls-1" width="240" height="600" rx="20"/><path class="cls-2" d="M120,461.75"/><path class="cls-3" d="M106.69,498.12c-.16,4.43-.76,7-2.24,9.54a13.92,13.92,0,0,0-2.07-2.36,9.1,9.1,0,0,0,1.08-2.88,34.42,34.42,0,0,0,.53-6.91c0-2.17,0-2.94-.09-3.64a22.14,22.14,0,0,0,2.27.09h4v-.38a3.37,3.37,0,0,0-.09-.9h3a3.07,3.07,0,0,0-.09.94V492h4.24a19.87,19.87,0,0,0,2.33-.11v2.65c-.67-.06-1.35-.08-2.18-.08h-.63v1.21h.59a16.61,16.61,0,0,0,2.2-.09v2.67c-.76-.06-1.37-.09-2.13-.09h-.66v2.28a10.73,10.73,0,0,0,.07,1.46c-.47,0-1,0-1.48,0H110c-.54,0-1.08,0-1.6,0a10.29,10.29,0,0,0,.07-1.48v-2.26Zm-1.15,8.46a10.69,10.69,0,0,0,1.69-4.43l2.3.83a14.17,14.17,0,0,1-1.69,4.84Zm2.89-10.95v-1.21h-1.71v1.21Zm1.35,12c0-.74.06-1.06.06-1.58a22.88,22.88,0,0,0-.22-3.28l2.38-.16a37.29,37.29,0,0,1,.36,4.88Zm4.16-12v-1.21h-2.73v1.21Zm-2.73,3.82h2.73v-1.33h-2.73Zm2.27,8.21a22.12,22.12,0,0,0-.89-4.83l2.24-.39a25.87,25.87,0,0,1,1.22,4.81Zm3.92-.09a21.76,21.76,0,0,0-1.94-4.7l2.12-1a26.87,26.87,0,0,1,2.25,4.44Z"/><path class="cls-3" d="M130,505.84c-2.38.61-3.95,1-6.41,1.42-.76.15-1.12.2-1.84.35l-.43.1-.53-2.9a16.41,16.41,0,0,0,1.73-.16V493.8a17.74,17.74,0,0,0-.11-2.31c.69.05,1.18.07,2.26.07h9.25c1,0,1.51,0,2.18-.07a13.86,13.86,0,0,0-.09,2v2a14,14,0,0,0,.09,2c-.61,0-1.23-.06-2.16-.06h-2.72c.05.65.05.69.13,1.25l3.31,0a21.27,21.27,0,0,0,2.52-.11v2.7c-.72-.07-1.46-.09-2.52-.09h-2.72a6.13,6.13,0,0,0,1.58,2.47,3.76,3.76,0,0,0,1.19.81c.18,0,.4-.94.58-2.36a12.79,12.79,0,0,0,2.38,1.44c-.47,3-1.12,4.09-2.53,4.09a5.4,5.4,0,0,1-3.47-1.84,8.59,8.59,0,0,1-1.69-2.34Zm-4.7-10.73h8V494h-8Zm0,2.3v1.26h3.34c-.07-.53-.07-.53-.12-1.25Zm0,6.83c1.58-.27,2.26-.42,4.61-1a11.43,11.43,0,0,1-.8-2.09h-3.81Z"/><path class="cls-3" d="M51,450.43a15,15,0,1,0,15,15A15,15,0,0,0,51,450.43Zm0,20a5,5,0,1,1,5-5A5,5,0,0,1,51,470.43Z"/><polygon class="cls-3" points="89.58 450.43 84.86 456.82 80.13 450.43 69.02 450.43 69.02 480.43 80.13 480.43 80.13 467.65 84.86 474.04 89.58 467.65 89.58 480.43 100.69 480.43 100.69 450.43 89.58 450.43"/><path class="cls-3" d="M24.33,460.43h4.34a5.59,5.59,0,0,1,4.35,2V451a17.69,17.69,0,0,0-4.35-.56H24.33c-9,0-16.31,6.72-16.31,15s7.3,15,16.31,15h4.34a17.69,17.69,0,0,0,4.35-.55V468.4a5.55,5.55,0,0,1-4.35,2H24.33a5,5,0,1,1,0-10Z"/><polygon class="cls-3" points="124.59 450.43 119.87 456.82 115.14 450.43 104.03 450.43 104.03 480.43 115.14 480.43 115.14 467.65 119.87 474.04 124.59 467.65 124.59 480.43 135.7 480.43 135.7 450.43 124.59 450.43"/><path class="cls-3" d="M153.29,450.43a15,15,0,1,0,15,15A15,15,0,0,0,153.29,450.43Zm0,20a5,5,0,1,1,5-5A5,5,0,0,1,153.29,470.43Z"/><polygon class="cls-3" points="191.59 450.43 191.59 463.21 182.14 450.43 171.03 450.43 171.03 480.43 182.14 480.43 182.14 467.65 191.59 480.43 202.7 480.43 202.7 450.43 191.59 450.43"/><path class="cls-3" d="M206.2,468.23c3.12,1.33,6.14,2.92,9.69,3.17.9.07,2.27.46,2.44-.77.16-1.06-1.21-.94-2-1.17-1.5-.45-3.09-.7-4.54-1.23-3.87-1.41-6.42-3.77-6.49-7.76s1.94-7.09,6.05-8.68c5.91-2.28,11.84-1.4,17.67.52a1.4,1.4,0,0,1,1.15,1.37c0,2.39,0,4.78,0,7.17,0,1.4-1,1-1.82.69a28.91,28.91,0,0,0-7.43-1.79c-.77-.07-1.84-.22-2.06.62-.27,1.07.91,1.16,1.73,1.38,1.8.49,3.67.83,5.39,1.47,3.69,1.39,5.95,3.86,6,7.53s-1.86,6.58-5.67,8.05c-6.92,2.66-13.71,1.94-20.26-1.18C205.49,474.48,205.19,471.34,206.2,468.23Z"/><circle class="cls-3" cx="121.68" cy="216.22" r="21.83"/><path class="cls-3" d="M160.31,147.36a40.31,40.31,0,0,0-80.62,0v5H111.6v-5a8.4,8.4,0,1,1,8.4,8.4v0c-8.42.44-15.12,9.91-15.12,18.43v15.12h31.91v-6.73c0-3.37,3.4-5.14,3.4-5.14l-.32.17C151.74,171.11,160.31,162.36,160.31,147.36Z"/></svg>