<svg id="レイヤー_1" data-name="レイヤー 1" xmlns="http://www.w3.org/2000/svg" viewBox="0 0 240 600"><defs><style>.cls-1{fill:#080404;}.cls-2,.cls-3{fill:#bbb;}.cls-3{stroke:#bbb;stroke-miterlimit:10;}</style></defs><rect class="cls-1" width="240" height="600" rx="20"/><path class="cls-2" d="M120,126.44a101.33,101.33,0,0,0-90,54.73,101.36,101.36,0,0,0,180,0A101.33,101.33,0,0,0,120,126.44Zm0,88.66a33.25,33.25,0,1,1,33.25-33.25A33.25,33.25,0,0,1,120,215.1Z"/><circle class="cls-2" cx="120" cy="181.17" r="20.8"/><rect class="cls-2" x="31.68" y="450.66" width="11.78" height="28.9"/><polygon class="cls-2" points="67.01 450.66 67.01 462.97 57.91 450.66 47.21 450.66 47.21 479.56 57.91 479.56 57.91 467.25 67.01 479.56 77.72 479.56 77.72 450.66 67.01 450.66"/><rect class="cls-2" x="107.15" y="450.66" width="11.78" height="28.9"/><polygon class="cls-2" points="166.57 470.46 166.57 468.86 174.06 468.86 174.06 461.9 166.57 461.9 166.57 460.3 175.67 460.3 175.67 450.66 166.57 450.66 154.79 450.66 154.79 479.56 166.57 479.56 176.2 479.56 176.2 470.46 166.57 470.46"/><path class="cls-2" d="M137.13,450.66H122.68v28.9h14.45a14.45,14.45,0,1,0,0-28.9Zm-1.61,19.27h-1.07V460.3h1.07a4.82,4.82,0,1,1,0,9.63Z"/><path class="cls-3" d="M199.75,465.11"/><path class="cls-2" d="M208.32,479.56l-6.77-12.18a9,9,0,0,0,4.09-7.35c0-5.18-4.79-9.37-10.7-9.37H179.41v28.9h11.78v-7.7l4.28,7.7ZM193.06,464h-1.87v-4.81h1.87a2.41,2.41,0,1,1,0,4.81Z"/><path class="cls-2" d="M80.39,467.81c3,1.28,5.92,2.81,9.33,3.06.87.06,2.19.44,2.36-.75.15-1-1.17-.91-1.92-1.13-1.45-.43-3-.67-4.38-1.18-3.73-1.36-6.18-3.63-6.25-7.48s1.87-6.82,5.83-8.36c5.69-2.2,11.41-1.35,17,.5a1.34,1.34,0,0,1,1.11,1.32c0,2.3,0,4.6,0,6.91,0,1.35-.91,1-1.75.67a28.08,28.08,0,0,0-7.16-1.74c-.74-.05-1.77-.2-2,.61-.26,1,.87,1.11,1.67,1.33,1.73.47,3.53.79,5.18,1.41,3.56,1.34,5.74,3.72,5.77,7.26A7.81,7.81,0,0,1,99.76,478c-6.66,2.56-13.2,1.87-19.52-1.14A18.33,18.33,0,0,1,80.39,467.81Z"/><path class="cls-2" d="M82.58,493a5.73,5.73,0,0,0-.7.67,30.24,30.24,0,0,1-4.16,3.62v6.93a25.77,25.77,0,0,0,.11,2.92h-3.5a24.45,24.45,0,0,0,.11-2.9v-5a30.47,30.47,0,0,1-5.89,2.66,9.66,9.66,0,0,0-1.72-2.9,26.22,26.22,0,0,0,9.56-4.68A13.27,13.27,0,0,0,79.66,491Z"/><path class="cls-2" d="M87.89,492a26.28,26.28,0,0,1,5,3.53l-2.13,2.8a19.19,19.19,0,0,0-4.89-3.79ZM86,503.2a18.43,18.43,0,0,0,5.42-1.3,10.79,10.79,0,0,0,5.27-4.45,16.81,16.81,0,0,0,1.77-3.52,11.58,11.58,0,0,0,2.64,2.41c-1.64,3.55-3.35,5.67-5.87,7.29a19.39,19.39,0,0,1-7,2.7c-.7.16-.81.18-1.3.33Z"/><path class="cls-2" d="M113.09,494.54v-1.19a13.6,13.6,0,0,0-.09-2h3.24a23.64,23.64,0,0,0-.09,3.21h.7a15.43,15.43,0,0,0,2.59-.13v3.08c-.86-.07-1.36-.09-2.53-.09h-.8c0,1.42,0,1.82-.12,2.5a7.71,7.71,0,0,1-2.67,5.44,11,11,0,0,1-3.72,2,8.92,8.92,0,0,0-2-2.76,9.63,9.63,0,0,0,3.48-1.58,5.2,5.2,0,0,0,1.89-4.16c0-.33,0-.45,0-1.48h-3.79v2a14.84,14.84,0,0,0,.07,1.85H106a13.62,13.62,0,0,0,.11-1.89v-2h-.67a21.17,21.17,0,0,0-2.53.09v-3.08a15.5,15.5,0,0,0,2.59.13h.61v-1.32a12.21,12.21,0,0,0-.11-1.91h3.3a13.47,13.47,0,0,0-.07,1.84v1.39Z"/><path class="cls-2" d="M136.58,493a5.73,5.73,0,0,0-.7.67,30.24,30.24,0,0,1-4.16,3.62v6.93a25.77,25.77,0,0,0,.11,2.92h-3.5a24.45,24.45,0,0,0,.11-2.9v-5a30.47,30.47,0,0,1-5.89,2.66,9.66,9.66,0,0,0-1.72-2.9,26.22,26.22,0,0,0,9.56-4.68,13.27,13.27,0,0,0,3.27-3.29Z"/><path class="cls-2" d="M154,494.84a4.47,4.47,0,0,0-.5,1.25,17.86,17.86,0,0,1-10.41,11.5,9.88,9.88,0,0,0-2.11-2.7,15,15,0,0,0,6.11-3.69,19.52,19.52,0,0,0-3.35-2.23l1.89-2.27a25.58,25.58,0,0,1,3.31,2.05,13.49,13.49,0,0,0,1.55-3.29l-5,0a19.44,19.44,0,0,1-4.1,4.88,9.08,9.08,0,0,0-2.59-2,15.19,15.19,0,0,0,5.52-7.69l3.23.63c-.18.34-.44.85-.78,1.57l4.18,0h.31a12.73,12.73,0,0,0-.81-1.51l1.81-.49a11.74,11.74,0,0,1,1.28,2.72l-.61.18Zm.83-4.66a13.29,13.29,0,0,1,1.3,2.67l-1.75.54a14.56,14.56,0,0,0-1.28-2.74Z"/><path class="cls-2" d="M157.19,497.35a26.39,26.39,0,0,0,3.69.16h8.6a30.75,30.75,0,0,0,3.69-.16v3.47a34.36,34.36,0,0,0-3.7-.11h-8.58c-2,0-2.61,0-3.7.11Z"/></svg>