<svg id="レイヤー_1" data-name="レイヤー 1" xmlns="http://www.w3.org/2000/svg" viewBox="0 0 330 336.4"><defs><style>.cls-1,.cls-2{fill:#090505;}.cls-2{stroke:#fff;stroke-miterlimit:10;}.cls-3{fill:#080404;}</style></defs><path class="cls-1" d="M165.22.21A160,160,0,0,0,23.11,86.63a160,160,0,0,0,284.21,0A160,160,0,0,0,165.22.21Zm0,140a52.5,52.5,0,1,1,52.5-52.5A52.5,52.5,0,0,1,165.22,140.21Z" transform="translate(-0.22 -0.21)"/><circle class="cls-1" cx="165" cy="86.42" r="32.84"/><rect class="cls-1" y="247.79" width="22" height="54"/><polygon class="cls-1" points="66 247.79 66 270.79 49 247.79 29 247.79 29 301.79 49 301.79 49 278.79 66 301.79 86 301.79 86 247.79 66 247.79"/><rect class="cls-1" x="141" y="247.79" width="22" height="54"/><polygon class="cls-1" points="252 284.79 252 281.79 266 281.79 266 268.79 252 268.79 252 265.79 269 265.79 269 247.79 252 247.79 230 247.79 230 301.79 252 301.79 270 301.79 270 284.79 252 284.79"/><path class="cls-1" d="M197.22,248h-27v54h27a27,27,0,1,0,0-54Zm-3,36h-2V266h2a9,9,0,1,1,0,18Z" transform="translate(-0.22 -0.21)"/><path class="cls-2" d="M314.22,275" transform="translate(-0.22 -0.21)"/><path class="cls-1" d="M330.22,302l-12.65-22.76a16.77,16.77,0,0,0,7.65-13.74c0-9.66-9-17.5-20-17.5h-29v54h22V287.6l8,14.4Zm-28.5-29h-3.5v-9h3.5a4.5,4.5,0,0,1,0,9Z" transform="translate(-0.22 -0.21)"/><path class="cls-3" d="M91.22,280c5.61,2.4,11,5.25,17.43,5.72,1.63.12,4.08.83,4.41-1.39.27-1.91-2.2-1.7-3.6-2.12-2.7-.8-5.55-1.24-8.17-2.2-7-2.55-11.56-6.79-11.67-14s3.49-12.75,10.88-15.62c10.64-4.11,21.31-2.53,31.8.92a2.53,2.53,0,0,1,2.08,2.47c0,4.3,0,8.61,0,12.91,0,2.52-1.7,1.81-3.27,1.25a52.47,52.47,0,0,0-13.37-3.24c-1.39-.11-3.32-.38-3.7,1.13-.49,1.93,1.63,2.08,3.11,2.49,3.23.87,6.6,1.48,9.69,2.64,6.64,2.5,10.72,7,10.78,13.56s-3.34,11.83-10.2,14.48c-12.45,4.78-24.67,3.49-36.48-2.12C89.93,291.29,89.4,285.64,91.22,280Z" transform="translate(-0.22 -0.21)"/><path d="M93.46,320.37a7.16,7.16,0,0,0-.78.74,33.52,33.52,0,0,1-4.62,4v7.7a28.58,28.58,0,0,0,.12,3.24H84.3a27.17,27.17,0,0,0,.12-3.22v-5.52a34,34,0,0,1-6.54,3A10.77,10.77,0,0,0,76,327.07a29,29,0,0,0,10.63-5.2,14.68,14.68,0,0,0,3.64-3.66Z" transform="translate(-0.22 -0.21)"/><path d="M99.36,319.31a29.18,29.18,0,0,1,5.5,3.92l-2.36,3.12a21.36,21.36,0,0,0-5.44-4.22Zm-2.1,12.42a20.07,20.07,0,0,0,6-1.44,12,12,0,0,0,5.86-4.94,18.41,18.41,0,0,0,2-3.92,12.91,12.91,0,0,0,2.94,2.68c-1.82,3.94-3.72,6.3-6.52,8.1a21.68,21.68,0,0,1-7.78,3c-.78.18-.9.2-1.44.36Z" transform="translate(-0.22 -0.21)"/><path d="M127.36,322.11v-1.32a14.77,14.77,0,0,0-.1-2.24h3.6a25.28,25.28,0,0,0-.1,3.56h.78a17.6,17.6,0,0,0,2.88-.14v3.42c-1-.08-1.52-.1-2.82-.1h-.88c0,1.58-.06,2-.14,2.78a8.57,8.57,0,0,1-3,6,12.14,12.14,0,0,1-4.14,2.26,9.77,9.77,0,0,0-2.18-3.06,10.58,10.58,0,0,0,3.86-1.76c1.36-1.08,1.94-2.38,2.1-4.62,0-.36,0-.5,0-1.64h-4.22v2.24a17.94,17.94,0,0,0,.08,2.06H119.5a14.86,14.86,0,0,0,.12-2.1v-2.2h-.74a23.7,23.7,0,0,0-2.82.1V322a17.53,17.53,0,0,0,2.88.14h.68v-1.46a13.48,13.48,0,0,0-.12-2.12h3.66a14.39,14.39,0,0,0-.08,2v1.54Z" transform="translate(-0.22 -0.21)"/><path d="M153.46,320.37a7.16,7.16,0,0,0-.78.74,33.52,33.52,0,0,1-4.62,4v7.7a28.58,28.58,0,0,0,.12,3.24H144.3a27.17,27.17,0,0,0,.12-3.22v-5.52a34,34,0,0,1-6.54,3,10.77,10.77,0,0,0-1.93-3.22,29,29,0,0,0,10.63-5.2,14.68,14.68,0,0,0,3.64-3.66Z" transform="translate(-0.22 -0.21)"/><path d="M172.84,322.45a4.7,4.7,0,0,0-.56,1.38,19.85,19.85,0,0,1-11.56,12.78,11.17,11.17,0,0,0-2.34-3,16.67,16.67,0,0,0,6.78-4.1,21.89,21.89,0,0,0-3.72-2.48l2.1-2.52a27.88,27.88,0,0,1,3.68,2.28,15.21,15.21,0,0,0,1.72-3.66l-5.54,0a21.5,21.5,0,0,1-4.56,5.42,9.94,9.94,0,0,0-2.89-2.26,16.84,16.84,0,0,0,6.15-8.54l3.58.7c-.2.38-.48.94-.86,1.74l4.64,0h.34a12.87,12.87,0,0,0-.9-1.68l2-.54a13.11,13.11,0,0,1,1.42,3l-.68.2Zm.92-5.18a14.59,14.59,0,0,1,1.44,3l-1.94.6a16.27,16.27,0,0,0-1.42-3Z" transform="translate(-0.22 -0.21)"/><path d="M176.35,325.23a28.59,28.59,0,0,0,4.11.18H190a32.82,32.82,0,0,0,4.1-.18v3.86A38.6,38.6,0,0,0,190,329h-9.52c-2.24,0-2.9,0-4.13.12Z" transform="translate(-0.22 -0.21)"/><path d="M210.18,321.63a13.89,13.89,0,0,0-1.5-3l2-.58a12.86,12.86,0,0,1,1.56,3.1l-1.6.52h.2a26.75,26.75,0,0,0,3.16-.14V325a29.6,29.6,0,0,0-3.18-.12H209.4c-.36,6-2.64,9.24-8.1,11.56a8.65,8.65,0,0,0-2.34-3.16c4.68-1.58,6.58-3.92,6.82-8.4H201.7a16.56,16.56,0,0,1-3.18,3.9,9.86,9.86,0,0,0-2.93-2.24,15,15,0,0,0,5.15-8.38l3.68.76c-.24.56-.3.7-.48,1.18-.28.68-.32.76-.44,1l-.24.54Zm3.38-4.34a14.31,14.31,0,0,1,1.58,3l-1.92.64a15.58,15.58,0,0,0-1.56-3.12Z" transform="translate(-0.22 -0.21)"/><path d="M216.35,325.23a28.59,28.59,0,0,0,4.11.18H230a32.82,32.82,0,0,0,4.1-.18v3.86A38.6,38.6,0,0,0,230,329h-9.52c-2.24,0-2.9,0-4.13.12Z" transform="translate(-0.22 -0.21)"/><path d="M246.48,319.05a8,8,0,0,0-.52,1.48c-1.56,5.18-2.42,7.72-3.72,11a61.32,61.32,0,0,0,6.86-.78,33,33,0,0,0-2.52-4.76l3.14-1.2a43.11,43.11,0,0,1,4.76,9.56l-3.42,1.74a15.25,15.25,0,0,0-.74-2.24c-2.86.5-4.9.78-8,1.1l-4.58.44a10.5,10.5,0,0,0-1.1.18l-.53-3.74.65,0c.12,0,.28,0,.5,0l.62,0a3.7,3.7,0,0,0,.5,0,91.89,91.89,0,0,0,3.32-9.94,17.76,17.76,0,0,0,.78-3.58Z" transform="translate(-0.22 -0.21)"/></svg>