<svg id="レイヤー_1" data-name="レイヤー 1" xmlns="http://www.w3.org/2000/svg" viewBox="0 0 240 600"><defs><style>.cls-1{fill:#080404;}.cls-2,.cls-3{fill:#ddd;}.cls-2{stroke:#ddd;stroke-miterlimit:10;}</style></defs><rect class="cls-1" width="240" height="600" rx="20"/><path class="cls-2" d="M120,476.08"/><path class="cls-3" d="M88.11,486.91c-1.49,0-2.12,0-2.92.09v-3.17a22.58,22.58,0,0,0,3,.14H98a3.6,3.6,0,0,0,1.25-.18l1.72,1.94a4.4,4.4,0,0,0-.83,1.15,24.13,24.13,0,0,1-5.7,6.9c.77.92,1.28,1.57,2.14,2.74l-2.7,2.1a30.59,30.59,0,0,0-3.48-4.7,26.8,26.8,0,0,0-3.61-3.58l2.46-1.73a29.44,29.44,0,0,1,3.12,2.86,19.71,19.71,0,0,0,2.81-2.84,12.6,12.6,0,0,0,1.15-1.75Z"/><path class="cls-3" d="M116.5,498.6a28.81,28.81,0,0,0-5.17-5.12,19.46,19.46,0,0,1-6.62,4.93,9.34,9.34,0,0,0-2-2.84,16.84,16.84,0,0,0,5.83-3.64,14.3,14.3,0,0,0,3.62-5.29l-4.68.07a21.69,21.69,0,0,0-2.86.18l-.09-3.2a13.33,13.33,0,0,0,1.89.12l1,0,6.16-.09a3.23,3.23,0,0,0,1.44-.19l1.58,1.62a2.85,2.85,0,0,0-.65,1.06,21.39,21.39,0,0,1-2.64,4.86,43.37,43.37,0,0,1,5.72,4.88Z"/><path class="cls-3" d="M129.39,482.79l-.78,1.56,4.85-.05a2,2,0,0,0,1.09-.24l1.61,1.59a1.64,1.64,0,0,0-.42.77,22.83,22.83,0,0,1-3.35,6.95,17.07,17.07,0,0,1-4.37,4.07,20.7,20.7,0,0,1-3.1,1.66,10,10,0,0,0-2.1-2.7,14.81,14.81,0,0,0,6.1-3.69,19.56,19.56,0,0,0-3.35-2.24l1.89-2.26a22.66,22.66,0,0,1,3.31,2.05,12.82,12.82,0,0,0,1.55-3.3l-5,0a18.76,18.76,0,0,1-4.1,4.88,8.71,8.71,0,0,0-2.59-2,15.46,15.46,0,0,0,4.48-5.16,11.72,11.72,0,0,0,1-2.52Z"/><path class="cls-3" d="M138.82,488.85a24.5,24.5,0,0,0,3.69.17h8.6a28.66,28.66,0,0,0,3.7-.17v3.48a34.7,34.7,0,0,0-3.71-.11h-8.57c-2,0-2.61,0-3.71.11Z"/><polygon class="cls-3" points="170.37 462.45 170.37 460.85 177.86 460.85 177.86 453.89 170.37 453.89 170.37 452.28 179.47 452.28 179.47 442.65 170.37 442.65 158.59 442.65 158.59 471.55 170.37 471.55 180 471.55 180 462.45 170.37 462.45"/><path class="cls-3" d="M212.12,471.55l-6.77-12.18a9,9,0,0,0,4.09-7.35c0-5.18-4.79-9.37-10.71-9.37H183.21v28.9H195v-7.7l4.28,7.7ZM196.86,456H195v-4.82h1.87a2.41,2.41,0,0,1,0,4.82Z"/><polygon class="cls-3" points="154.99 442.65 146.42 442.65 134.65 442.65 126.08 442.65 126.08 454.43 134.65 454.43 134.65 471.55 146.42 471.55 146.42 454.43 154.99 454.43 154.99 442.65"/><path class="cls-3" d="M83,471.92H93l-10-30H73l-10,30H73l1.66-5h6.67Zm-6.67-10,1.67-5,1.66,5Z"/><polygon class="cls-3" points="48.44 442.1 43.72 448.49 39 442.1 27.89 442.1 27.89 472.1 39 472.1 39 459.32 43.72 465.71 48.44 459.32 48.44 472.1 59.55 472.1 59.55 442.1 48.44 442.1"/><path class="cls-3" d="M97.32,459.9c3.11,1.33,6.14,2.91,9.68,3.17.91.07,2.27.46,2.45-.77.15-1.06-1.22-.94-2-1.17-1.5-.45-3.08-.7-4.54-1.23-3.87-1.41-6.42-3.77-6.48-7.76s1.94-7.09,6-8.68c5.9-2.28,11.83-1.4,17.66.52a1.4,1.4,0,0,1,1.16,1.37c0,2.39,0,4.78,0,7.17,0,1.4-.94,1-1.82.69a29.24,29.24,0,0,0-7.43-1.8c-.76-.06-1.84-.21-2.05.63-.27,1.07.91,1.16,1.73,1.38,1.8.49,3.66.82,5.38,1.47,3.69,1.39,6,3.86,6,7.53s-1.85,6.58-5.67,8.05c-6.92,2.66-13.7,1.94-20.26-1.18C96.6,466.15,96.31,463,97.32,459.9Z"/><rect class="cls-3" x="102.69" y="115.4" width="34.62" height="79.62"/><circle class="cls-3" cx="120" cy="224.44" r="22.5"/></svg>